# This file uses centimeters as units for non-parametric coordinates.

mtllib Cube.mtl
g default
v 0.000000 0.000000 1072.623657
v 0.000000 0.000000 1082.623657
v 0.000000 0.000000 1362.623657
v 0.000004 0.000000 1372.623657
v 0.000000 9.999992 1072.623657
v 0.000000 9.999992 1082.623657
v 0.000000 9.999992 1362.623657
v 0.000004 9.999992 1372.623657
v 0.000000 290.000000 1072.623657
v 0.000000 290.000000 1082.623657
v 0.000000 290.000000 1362.623657
v 0.000004 290.000000 1372.623657
v 0.000011 300.000000 1072.623657
v 0.000011 300.000000 1082.623657
v 0.000015 300.000000 1362.623657
v 0.000011 300.000000 1372.623657
v 9.999992 300.000000 1072.623657
v 9.999992 300.000000 1082.623657
v 9.999992 300.000000 1362.623657
v 9.999996 300.000000 1372.623657
v 290.000000 300.000000 1072.623657
v 290.000000 300.000000 1082.623657
v 290.000000 300.000000 1362.623657
v 290.000000 300.000000 1372.623657
v 300.000000 300.000000 1072.623657
v 300.000000 300.000000 1082.623657
v 300.000000 300.000000 1362.623657
v 300.000000 300.000000 1372.623657
v 300.000000 290.000000 1072.623657
v 300.000000 290.000000 1082.623657
v 300.000000 290.000000 1362.623657
v 300.000000 290.000000 1372.623657
v 300.000000 10.000004 1072.623657
v 300.000000 10.000004 1082.623657
v 300.000000 10.000004 1362.623657
v 300.000000 10.000004 1372.623657
v 300.000000 0.000000 1072.623657
v 300.000000 0.000000 1082.623657
v 300.000000 0.000000 1362.623657
v 300.000000 0.000000 1372.623657
v 290.000000 0.000000 1072.623657
v 290.000000 0.000000 1082.623657
v 290.000000 0.000000 1362.623657
v 290.000000 0.000000 1372.623657
v 10.000004 0.000000 1072.623657
v 10.000004 0.000000 1082.623657
v 10.000000 0.000000 1362.623657
v 10.000011 0.000000 1372.623657
v 290.000000 9.999992 1372.623657
v 10.000000 9.999992 1372.623657
v 290.000000 290.000000 1372.623657
v 10.000000 290.000000 1372.623657
v 290.000000 9.999992 1072.623657
v 10.000004 9.999992 1072.623657
v 290.000000 290.000000 1072.623657
v 10.000004 290.000000 1072.623657
vt 0.352142 0.175223
vt 0.361969 0.175223
vt 0.361969 0.185050
vt 0.352142 0.185050
vt 0.637128 0.175223
vt 0.637128 0.185050
vt 0.361969 0.460209
vt 0.352142 0.460209
vt 0.646955 0.175223
vt 0.646955 0.185050
vt 0.637128 0.460209
vt 0.361969 0.470036
vt 0.352142 0.470036
vt 0.646955 0.460209
vt 0.637128 0.470036
vt 0.646955 0.470036
vt 0.971817 0.489663
vt 0.971817 0.499489
vt 0.961991 0.499489
vt 0.961991 0.489663
vt 0.971817 0.774627
vt 0.961991 0.774627
vt 0.686853 0.499489
vt 0.686853 0.489663
vt 0.971817 0.784453
vt 0.961991 0.784453
vt 0.686853 0.774627
vt 0.677027 0.499489
vt 0.677027 0.489663
vt 0.686853 0.784453
vt 0.677027 0.774627
vt 0.677027 0.784453
vt 0.971638 0.469796
vt 0.961811 0.469796
vt 0.961811 0.459970
vt 0.971638 0.459970
vt 0.686656 0.469796
vt 0.686656 0.459970
vt 0.961811 0.184815
vt 0.971638 0.184815
vt 0.676829 0.469796
vt 0.676829 0.459970
vt 0.686656 0.184815
vt 0.961811 0.174988
vt 0.971638 0.174988
vt 0.676829 0.184815
vt 0.686656 0.174988
vt 0.676829 0.174988
vt 0.319095 0.175977
vt 0.319095 0.185804
vt 0.309267 0.185804
vt 0.309267 0.175977
vt 0.319095 0.460963
vt 0.309267 0.460963
vt 0.034109 0.185804
vt 0.034109 0.175977
vt 0.319095 0.470790
vt 0.309267 0.470790
vt 0.034109 0.460963
vt 0.024282 0.185804
vt 0.024282 0.175977
vt 0.034109 0.470790
vt 0.024282 0.460963
vt 0.024282 0.470790
vt 0.308812 0.490295
vt 0.318639 0.490295
vt 0.318639 0.500122
vt 0.308812 0.500122
vt 0.318639 0.775279
vt 0.308812 0.775279
vt 0.033655 0.490295
vt 0.033655 0.500122
vt 0.318639 0.785106
vt 0.308812 0.785106
vt 0.033655 0.775279
vt 0.023828 0.490295
vt 0.023828 0.500122
vt 0.033655 0.785106
vt 0.023828 0.775279
vt 0.023828 0.785106
vt 0.645218 0.785106
vt 0.635391 0.785106
vt 0.635391 0.775279
vt 0.645218 0.775279
vt 0.360235 0.785106
vt 0.360235 0.775279
vt 0.635391 0.500123
vt 0.645218 0.500123
vt 0.350408 0.785106
vt 0.350408 0.775279
vt 0.360235 0.500123
vt 0.635391 0.490296
vt 0.645218 0.490296
vt 0.350408 0.500123
vt 0.360235 0.490296
vt 0.350408 0.490296
vn -1.000000 0.000000 0.000000
vn -1.000000 0.000000 0.000000
vn -1.000000 0.000000 0.000000
vn -1.000000 0.000000 0.000000
vn -1.000000 0.000000 0.000000
vn -1.000000 0.000000 0.000000
vn -1.000000 0.000000 0.000000
vn -1.000000 0.000000 0.000000
vn -1.000000 0.000000 0.000000
vn -1.000000 0.000000 0.000000
vn -1.000000 0.000000 0.000000
vn -1.000000 0.000000 0.000000
vn -1.000000 0.000001 0.000000
vn -1.000000 0.000001 0.000000
vn -1.000000 0.000001 0.000000
vn -1.000000 0.000001 0.000000
vn 0.000000 1.000000 0.000000
vn 0.000000 1.000000 0.000000
vn 0.000000 1.000000 0.000000
vn 0.000000 1.000000 0.000000
vn 0.000000 1.000000 0.000000
vn 0.000000 1.000000 0.000000
vn 0.000000 1.000000 0.000002
vn 0.000000 1.000000 0.000000
vn 0.000000 1.000000 0.000000
vn 0.000000 1.000000 0.000000
vn 0.000000 1.000000 0.000000
vn 0.000000 1.000000 0.000000
vn 0.000000 1.000000 0.000000
vn 0.000000 1.000000 0.000000
vn 0.000000 1.000000 0.000000
vn 0.000000 1.000000 0.000000
vn 1.000000 0.000000 0.000000
vn 1.000000 0.000000 0.000000
vn 1.000000 0.000000 0.000000
vn 1.000000 0.000000 0.000000
vn 1.000000 0.000000 0.000000
vn 1.000000 0.000000 0.000000
vn 1.000000 0.000000 0.000000
vn 1.000000 0.000000 0.000000
vn 1.000000 0.000000 0.000000
vn 1.000000 0.000000 0.000000
vn 1.000000 0.000000 0.000000
vn 1.000000 0.000000 0.000000
vn 1.000000 0.000000 0.000000
vn 1.000000 0.000000 0.000000
vn 1.000000 0.000000 0.000000
vn 1.000000 0.000000 0.000000
vn 0.000000 -1.000000 0.000000
vn 0.000000 -1.000000 0.000000
vn 0.000000 -1.000000 0.000000
vn 0.000000 -1.000000 0.000000
vn 0.000000 -1.000000 0.000000
vn 0.000000 -1.000000 0.000000
vn 0.000000 -1.000000 0.000000
vn 0.000000 -1.000000 0.000000
vn 0.000000 -1.000000 0.000000
vn 0.000000 -1.000000 0.000000
vn 0.000000 -1.000000 0.000000
vn 0.000000 -1.000000 0.000000
vn 0.000000 -1.000000 0.000000
vn 0.000000 -1.000000 0.000000
vn 0.000000 -1.000000 0.000000
vn 0.000000 -1.000000 0.000000
vn 0.000000 0.000000 1.000000
vn 0.000000 0.000000 1.000000
vn -0.000011 0.000000 1.000000
vn -0.000000 0.000000 1.000000
vn 0.000000 0.000000 1.000000
vn 0.000000 0.000000 1.000000
vn 0.000000 0.000000 1.000000
vn 0.000000 0.000000 1.000000
vn -0.000011 0.000000 1.000000
vn -0.000000 0.000000 1.000000
vn 0.000000 0.000000 1.000000
vn 0.000000 0.000000 1.000000
vn 0.000000 0.000000 1.000000
vn 0.000000 0.000000 1.000000
vn 0.000000 0.000000 1.000000
vn 0.000000 0.000000 1.000000
vn -0.000010 0.000000 -1.000000
vn -0.000000 0.000000 -1.000000
vn -0.000000 0.000000 -1.000000
vn -0.000000 0.000000 -1.000000
vn 0.000000 0.000000 -1.000000
vn 0.000000 0.000000 -1.000000
vn 0.000000 0.000000 -1.000000
vn 0.000000 0.000000 -1.000000
vn 0.000000 0.000000 -1.000000
vn 0.000000 0.000000 -1.000000
vn 0.000000 0.000000 -1.000000
vn 0.000000 0.000000 -1.000000
vn 0.000000 0.000000 -1.000000
vn 0.000000 0.000000 -1.000000
vn 0.000000 0.000000 -1.000000
vn 0.000000 0.000000 -1.000000
s 1
g CUBE_1
usemtl lambert2SG
f 1/1/1 2/2/2 6/3/3 5/4/4
f 2/2/2 3/5/5 7/6/6 6/3/3
f 3/5/5 4/9/7 8/10/8 7/6/6
f 5/4/4 6/3/3 10/7/9 9/8/10
f 6/3/3 7/6/6 11/11/11 10/7/9
f 7/6/6 8/10/8 12/14/12 11/11/11
f 9/8/10 10/7/9 14/12/13 13/13/14
f 10/7/9 11/11/11 15/15/15 14/12/13
f 11/11/11 12/14/12 16/16/16 15/15/15
s 2
f 13/33/17 14/34/18 18/35/19 17/36/20
f 14/34/18 15/37/21 19/38/22 18/35/19
f 15/37/21 16/41/23 20/42/24 19/38/22
f 17/36/20 18/35/19 22/39/25 21/40/26
f 18/35/19 19/38/22 23/43/27 22/39/25
f 19/38/22 20/42/24 24/46/28 23/43/27
f 21/40/26 22/39/25 26/44/29 25/45/30
f 22/39/25 23/43/27 27/47/31 26/44/29
f 23/43/27 24/46/28 28/48/32 27/47/31
s 3
f 25/17/33 26/18/34 30/19/35 29/20/36
f 26/18/34 27/21/37 31/22/38 30/19/35
f 27/21/37 28/25/39 32/26/40 31/22/38
f 29/20/36 30/19/35 34/23/41 33/24/42
f 30/19/35 31/22/38 35/27/43 34/23/41
f 31/22/38 32/26/40 36/30/44 35/27/43
f 33/24/42 34/23/41 38/28/45 37/29/46
f 34/23/41 35/27/43 39/31/47 38/28/45
f 35/27/43 36/30/44 40/32/48 39/31/47
s 4
f 37/49/49 38/50/50 42/51/51 41/52/52
f 38/50/50 39/53/53 43/54/54 42/51/51
f 39/53/53 40/57/55 44/58/56 43/54/54
f 41/52/52 42/51/51 46/55/57 45/56/58
f 42/51/51 43/54/54 47/59/59 46/55/57
f 43/54/54 44/58/56 48/62/60 47/59/59
f 45/56/58 46/55/57 2/60/61 1/61/62
f 46/55/57 47/59/59 3/63/63 2/60/61
f 47/59/59 48/62/60 4/64/64 3/63/63
s 5
f 44/65/65 40/66/66 36/67/67 49/68/68
f 48/71/69 44/65/65 49/68/68 50/72/70
f 4/76/71 48/71/69 50/72/70 8/77/72
f 49/68/68 36/67/67 32/69/73 51/70/74
f 50/72/70 49/68/68 51/70/74 52/75/75
f 8/77/72 50/72/70 52/75/75 12/79/76
f 51/70/74 32/69/73 28/73/77 24/74/78
f 52/75/75 51/70/74 24/74/78 20/78/79
f 12/79/76 52/75/75 20/78/79 16/80/80
s 6
f 37/81/81 41/82/82 53/83/83 33/84/84
f 41/82/82 45/85/85 54/86/86 53/83/83
f 45/85/85 1/89/87 5/90/88 54/86/86
f 33/84/84 53/83/83 55/87/89 29/88/90
f 53/83/83 54/86/86 56/91/91 55/87/89
f 54/86/86 5/90/88 9/94/92 56/91/91
f 29/88/90 55/87/89 21/92/93 25/93/94
f 55/87/89 56/91/91 17/95/95 21/92/93
f 56/91/91 9/94/92 13/96/96 17/95/95
