# This file uses centimeters as units for non-parametric coordinates.

mtllib Hollow_Cube2.mtl
g default
v -150.000000 0.000000 -150.000000
v -150.000000 0.000000 -140.000000
v -150.000000 0.000000 140.000000
v -149.999985 0.000000 150.000000
v -150.000000 9.999992 -150.000000
v -149.999985 9.999992 150.000000
v -150.000000 290.000000 -150.000000
v -149.999985 290.000000 150.000000
v -149.999985 300.000000 -149.999985
v -149.999985 300.000000 -140.000000
v -149.999969 300.000000 140.000000
v -149.999985 300.000000 149.999969
v -140.000000 300.000000 -149.999985
v -140.000000 300.000000 149.999969
v 140.000000 300.000000 -149.999985
v 140.000000 300.000000 149.999969
v 150.000000 300.000000 -149.999985
v 150.000000 300.000000 -140.000000
v 150.000000 300.000000 140.000000
v 150.000000 300.000000 149.999969
v 150.000000 290.000000 -150.000000
v 150.000000 290.000000 150.000000
v 150.000000 10.000004 -150.000000
v 150.000000 10.000004 150.000000
v 150.000000 0.000000 -150.000000
v 150.000000 0.000000 -140.000000
v 150.000000 0.000000 140.000000
v 150.000000 0.000000 150.000000
v 140.000000 0.000000 -150.000000
v 140.000000 0.000000 150.000000
v -139.999985 0.000000 -150.000000
v -139.999985 0.000000 150.000000
v 140.000000 -0.000015 -140.000015
v -140.000000 -0.000015 -140.000015
v 150.000000 290.000000 -140.000015
v 150.000000 9.999985 -140.000015
v -140.000015 300.000000 -140.000015
v 140.000000 300.000000 -140.000015
v -150.000000 9.999977 -140.000015
v -150.000000 290.000000 -140.000015
v -140.000000 9.999977 -150.000015
v -140.000000 290.000000 -150.000015
v 140.000000 9.999977 -150.000015
v 140.000000 290.000000 -150.000015
v -150.000000 290.000000 140.000000
v -150.000000 9.999977 140.000000
v 140.000000 -0.000015 140.000000
v -140.000000 -0.000015 140.000000
v 150.000000 290.000000 140.000000
v 150.000000 9.999989 140.000000
v -140.000015 300.000000 140.000000
v 140.000000 300.000000 140.000000
v -140.000000 9.999977 150.000031
v -140.000000 290.000000 150.000031
v 140.000000 9.999977 150.000031
v 140.000000 290.000000 150.000031
v 140.000000 9.999981 -140.000015
v -140.000000 9.999973 -140.000000
v 140.000000 290.000000 -140.000015
v -140.000015 290.000000 -140.000000
v 140.000000 9.999981 140.000000
v -140.000000 9.999973 140.000000
v -140.000015 290.000000 140.000000
v 140.000000 290.000000 140.000000
v -64.379295 151.838654 -4.865875
v -27.975677 151.838654 58.187042
v -19.794136 203.321167 -30.607117
v 16.609474 203.321167 32.445786
v -63.514420 150.839966 -5.365211
v -27.110802 150.839966 57.687706
v 17.474350 202.322479 31.946449
v -18.929260 202.322479 -31.106453
v -16.609474 203.321136 -32.445786
v 19.794136 203.321136 30.607132
v 27.975685 151.838638 -58.187042
v 64.379295 151.838638 4.865875
v -17.474350 202.322449 -31.946449
v 18.929260 202.322449 31.106468
v 63.514420 150.839951 5.365211
v 27.110809 150.839951 -57.687706
v 27.975685 148.161331 -58.187042
v 64.379295 148.161331 4.865875
v -16.609474 96.678833 -32.445786
v 19.794136 96.678833 30.607132
v 27.110809 149.160019 -57.687706
v 63.514420 149.160019 5.365211
v 18.929260 97.677505 31.106468
v -17.474350 97.677505 -31.946449
v -19.794136 96.678802 -30.607117
v 16.609474 96.678802 32.445786
v -64.379288 148.161316 -4.865875
v -27.975685 148.161316 58.187042
v -18.929260 97.677475 -31.106453
v 17.474350 97.677475 31.946449
v -27.110809 149.160004 57.687706
v -63.514412 149.160004 -5.365211
v 19.501976 98.517487 33.778381
v -25.083183 150.000000 59.519653
v 64.087135 149.999985 8.037140
v 19.501976 201.482498 33.778397
v 18.795807 98.517487 32.555260
v -25.789352 150.000000 58.296532
v 63.380966 149.999985 6.814020
v 18.795807 201.482498 32.555275
v -19.501945 98.517487 -33.778397
v -64.087105 149.999985 -8.037140
v 25.083199 149.999985 -59.519653
v -19.501945 201.482483 -33.778397
v -18.795776 98.517487 -32.555275
v -63.380936 149.999985 -6.814020
v -18.795776 201.482483 -32.555275
v 25.789368 149.999985 -58.296532
vt 0.681968 0.268534
vt 0.673614 0.268534
vt 0.673614 0.260191
vt 0.681968 0.260191
vt 0.430729 0.268534
vt 0.430729 0.260191
vt 0.422388 0.268534
vt 0.422388 0.260191
vt 0.673614 0.017355
vt 0.681968 0.017355
vt 0.422388 0.017355
vt 0.430729 0.017355
vt 0.673614 0.009007
vt 0.681968 0.009007
vt 0.430729 0.009007
vt 0.422388 0.009007
vt 0.150741 0.543942
vt 0.150741 0.535628
vt 0.159075 0.535628
vt 0.159075 0.543942
vt 0.150741 0.293787
vt 0.159075 0.293787
vt 0.150741 0.285481
vt 0.159075 0.285481
vt 0.400879 0.535628
vt 0.400879 0.543942
vt 0.400879 0.285481
vt 0.400879 0.293787
vt 0.409213 0.535628
vt 0.409213 0.543942
vt 0.409213 0.293788
vt 0.409213 0.285481
vt 0.948546 0.543583
vt 0.940282 0.543583
vt 0.940282 0.535322
vt 0.948546 0.535322
vt 0.699739 0.543582
vt 0.699739 0.535322
vt 0.691477 0.543582
vt 0.691477 0.535322
vt 0.940282 0.294783
vt 0.948546 0.294783
vt 0.691477 0.294783
vt 0.699739 0.294783
vt 0.940282 0.286519
vt 0.948546 0.286519
vt 0.699739 0.286519
vt 0.691477 0.286519
vt 0.409229 0.268565
vt 0.400888 0.268565
vt 0.400888 0.260234
vt 0.409229 0.260234
vt 0.158265 0.268565
vt 0.158265 0.260234
vt 0.149931 0.268565
vt 0.149931 0.260234
vt 0.400888 0.017612
vt 0.409229 0.017612
vt 0.149931 0.017612
vt 0.158265 0.017612
vt 0.400888 0.009282
vt 0.409229 0.009282
vt 0.158265 0.009282
vt 0.149931 0.009282
vt 0.949575 0.260381
vt 0.949575 0.268726
vt 0.941243 0.268726
vt 0.941243 0.260381
vt 0.949575 0.017178
vt 0.941243 0.017178
vt 0.949575 0.008805
vt 0.941243 0.008805
vt 0.698028 0.268726
vt 0.698028 0.260381
vt 0.698028 0.017178
vt 0.698028 0.008805
vt 0.689659 0.268726
vt 0.689659 0.260381
vt 0.689659 0.017178
vt 0.689659 0.008805
vt 0.422633 0.285336
vt 0.430982 0.285336
vt 0.430982 0.293682
vt 0.422633 0.293682
vt 0.673985 0.285336
vt 0.673985 0.293682
vt 0.682331 0.285336
vt 0.682331 0.293682
vt 0.430982 0.536686
vt 0.422633 0.536686
vt 0.682331 0.536686
vt 0.673985 0.536686
vt 0.430982 0.545034
vt 0.422633 0.545034
vt 0.673985 0.545034
vt 0.682331 0.545034
vt 0.668356 0.299312
vt 0.436610 0.299312
vt 0.436610 0.531056
vt 0.668357 0.531056
vt 0.667964 0.254568
vt 0.667964 0.022969
vt 0.395268 0.254616
vt 0.395268 0.023220
vt 0.163879 0.254616
vt 0.163879 0.023220
vt 0.934712 0.300349
vt 0.705306 0.300348
vt 0.935601 0.254754
vt 0.935601 0.022797
vt 0.436358 0.254568
vt 0.436358 0.022969
vt 0.395299 0.299386
vt 0.164657 0.299386
vt 0.395299 0.530024
vt 0.164657 0.530024
vt 0.703660 0.022797
vt 0.703660 0.254754
vt 0.705306 0.529756
vt 0.934712 0.529756
vt 0.638842 0.569093
vt 0.638842 0.768600
vt 0.838349 0.768600
vt 0.838349 0.569093
vt 0.838355 0.568842
vt 0.638945 0.568842
vt 0.638944 0.768253
vt 0.838355 0.768253
vt 0.053527 0.541468
vt 0.049426 0.541468
vt 0.049426 0.752884
vt 0.053527 0.752884
vt 0.909316 0.762386
vt 0.905216 0.762386
vt 0.905216 0.973719
vt 0.909316 0.973719
vt 0.027602 0.752890
vt 0.031700 0.752890
vt 0.031700 0.541625
vt 0.027602 0.541625
vt 0.940304 0.973510
vt 0.944406 0.973510
vt 0.944406 0.762044
vt 0.940304 0.762044
vt 0.354764 0.986351
vt 0.354764 0.786858
vt 0.155271 0.786858
vt 0.155271 0.986351
vt 0.354595 0.985971
vt 0.354595 0.786479
vt 0.155103 0.786479
vt 0.155103 0.985971
vt 0.064301 0.541188
vt 0.060200 0.541188
vt 0.060200 0.752604
vt 0.064301 0.752604
vt 0.061372 0.980568
vt 0.065434 0.980568
vt 0.065434 0.771191
vt 0.061372 0.771191
vt 0.083773 0.752642
vt 0.087871 0.752642
vt 0.087871 0.541375
vt 0.083773 0.541375
vt 0.086094 0.770988
vt 0.082025 0.770988
vt 0.082025 0.980760
vt 0.086094 0.980760
vt 0.600772 0.768477
vt 0.600772 0.568103
vt 0.400398 0.568103
vt 0.400398 0.768477
vt 0.600893 0.767984
vt 0.600893 0.568486
vt 0.401394 0.568486
vt 0.401394 0.767984
vt 0.077408 0.541452
vt 0.073310 0.541452
vt 0.073310 0.752716
vt 0.077408 0.752716
vt 0.884048 0.973918
vt 0.888148 0.973918
vt 0.888148 0.762585
vt 0.884048 0.762585
vt 0.094476 0.752604
vt 0.098578 0.752604
vt 0.098577 0.541187
vt 0.094476 0.541187
vt 0.897226 0.762465
vt 0.893129 0.762465
vt 0.893129 0.973659
vt 0.897226 0.973659
vt 0.357042 0.567762
vt 0.157570 0.567762
vt 0.157570 0.767235
vt 0.357042 0.767235
vt 0.356956 0.568019
vt 0.157486 0.568019
vt 0.157486 0.767488
vt 0.356955 0.767488
vt 0.042577 0.541446
vt 0.038479 0.541446
vt 0.038479 0.752712
vt 0.042577 0.752712
vt 0.055617 0.771235
vt 0.051555 0.771235
vt 0.051555 0.980611
vt 0.055617 0.980611
vt 0.105282 0.752661
vt 0.109383 0.752661
vt 0.109383 0.541244
vt 0.105282 0.541244
vt 0.072208 0.980998
vt 0.076277 0.980998
vt 0.076277 0.771226
vt 0.072208 0.771226
vt 0.402826 0.987764
vt 0.602298 0.987764
vt 0.602298 0.788292
vt 0.402826 0.788292
vt 0.401998 0.987170
vt 0.601495 0.987169
vt 0.601494 0.787673
vt 0.401998 0.787673
vt 0.091705 0.980867
vt 0.095775 0.980867
vt 0.095775 0.771049
vt 0.091705 0.771049
vt 0.932525 0.762598
vt 0.928425 0.762598
vt 0.928425 0.973945
vt 0.932525 0.973945
vt 0.036091 0.771117
vt 0.032030 0.771117
vt 0.032030 0.980451
vt 0.036091 0.980451
vt 0.963773 0.973877
vt 0.967875 0.973877
vt 0.967875 0.762417
vt 0.963773 0.762417
vt 0.838943 0.984158
vt 0.838943 0.784881
vt 0.639666 0.784881
vt 0.639666 0.984158
vt 0.639692 0.784691
vt 0.639692 0.984154
vt 0.839154 0.984154
vt 0.839155 0.784691
vt 0.105592 0.771005
vt 0.101522 0.771005
vt 0.101522 0.980823
vt 0.105592 0.980823
vt 0.956471 0.762079
vt 0.952369 0.762079
vt 0.952369 0.973539
vt 0.956471 0.973539
vt 0.041847 0.980465
vt 0.045908 0.980465
vt 0.045908 0.771131
vt 0.041847 0.771131
vt 0.915175 0.973699
vt 0.919275 0.973699
vt 0.919275 0.762352
vt 0.915175 0.762352
vn -1.000000 0.000000 0.000000
vn -1.000000 0.000001 0.000000
vn -1.000000 0.000000 0.000000
vn -1.000000 0.000000 0.000000
vn -1.000000 0.000001 0.000000
vn -1.000000 0.000000 0.000001
vn -1.000000 0.000000 0.000002
vn -1.000000 0.000000 0.000002
vn -1.000000 0.000001 0.000000
vn -1.000000 0.000000 0.000000
vn -1.000000 0.000000 0.000001
vn -1.000000 0.000001 0.000001
vn -1.000000 0.000002 0.000000
vn -1.000000 0.000002 0.000000
vn -1.000000 0.000002 0.000000
vn -1.000000 0.000004 0.000000
vn 0.000000 1.000000 0.000000
vn 0.000000 1.000000 -0.000000
vn 0.000000 1.000000 0.000001
vn 0.000000 1.000000 0.000003
vn 0.000000 1.000000 0.000000
vn 0.000000 1.000000 -0.000001
vn 0.000000 1.000000 0.000002
vn 0.000000 1.000000 -0.000003
vn 0.000000 1.000000 0.000001
vn 0.000000 1.000000 0.000003
vn 0.000000 1.000000 -0.000003
vn 0.000000 1.000000 -0.000001
vn 0.000000 1.000000 0.000000
vn 0.000000 1.000000 0.000000
vn 0.000000 1.000000 0.000000
vn 0.000000 1.000000 0.000000
vn 1.000000 0.000000 0.000000
vn 1.000000 -0.000001 0.000000
vn 1.000000 -0.000000 0.000000
vn 1.000000 0.000000 0.000000
vn 1.000000 -0.000001 0.000000
vn 1.000000 -0.000000 0.000000
vn 1.000000 0.000000 0.000000
vn 1.000000 0.000000 0.000000
vn 1.000000 0.000000 0.000000
vn 1.000000 0.000000 0.000000
vn 1.000000 0.000000 0.000000
vn 1.000000 0.000000 0.000000
vn 1.000000 0.000001 0.000000
vn 1.000000 0.000000 0.000000
vn 1.000000 0.000001 0.000000
vn 1.000000 0.000000 0.000000
vn 0.000001 -1.000000 -0.000001
vn 0.000001 -1.000000 -0.000000
vn 0.000001 -1.000000 -0.000001
vn 0.000000 -1.000000 -0.000001
vn 0.000001 -1.000000 0.000000
vn 0.000001 -1.000000 0.000001
vn 0.000001 -1.000000 0.000001
vn 0.000000 -1.000000 0.000001
vn -0.000001 -1.000000 -0.000001
vn -0.000000 -1.000000 -0.000001
vn -0.000000 -1.000000 0.000001
vn -0.000001 -1.000000 0.000001
vn -0.000001 -1.000000 -0.000000
vn -0.000001 -1.000000 -0.000001
vn -0.000001 -1.000000 0.000000
vn -0.000001 -1.000000 0.000001
vn 0.000000 -0.000003 1.000000
vn 0.000001 -0.000002 1.000000
vn 0.000003 -0.000000 1.000000
vn 0.000001 -0.000002 1.000000
vn -0.000000 -0.000003 1.000000
vn -0.000001 -0.000002 1.000000
vn -0.000001 -0.000002 1.000000
vn -0.000003 -0.000000 1.000000
vn 0.000003 0.000000 1.000000
vn 0.000001 0.000003 1.000000
vn -0.000001 0.000003 1.000000
vn -0.000003 0.000000 1.000000
vn 0.000001 0.000005 1.000000
vn 0.000000 0.000006 1.000000
vn -0.000000 0.000006 1.000000
vn -0.000001 0.000005 1.000000
vn 0.000000 -0.000001 -1.000000
vn 0.000000 -0.000001 -1.000000
vn 0.000001 -0.000001 -1.000000
vn 0.000001 -0.000000 -1.000000
vn 0.000000 -0.000001 -1.000000
vn -0.000001 -0.000001 -1.000000
vn 0.000000 -0.000001 -1.000000
vn -0.000001 -0.000000 -1.000000
vn 0.000001 0.000002 -1.000000
vn 0.000001 0.000000 -1.000000
vn -0.000001 0.000000 -1.000000
vn -0.000001 0.000002 -1.000000
vn 0.000000 0.000003 -1.000000
vn 0.000000 0.000002 -1.000000
vn 0.000000 0.000003 -1.000000
vn 0.000000 0.000002 -1.000000
vn -0.000000 1.000000 0.000000
vn -0.000000 1.000000 0.000000
vn -0.000000 1.000000 0.000000
vn -0.000000 1.000000 0.000000
vn 0.000000 -1.000000 -0.000002
vn 0.000000 -1.000000 -0.000002
vn 0.000000 -1.000000 -0.000002
vn 0.000000 -1.000000 -0.000002
vn 1.000000 0.000000 0.000001
vn 1.000000 0.000000 0.000001
vn 1.000000 0.000000 0.000001
vn 1.000000 0.000000 0.000001
vn -0.000001 0.000000 1.000000
vn -0.000001 0.000000 1.000000
vn -0.000001 0.000000 1.000000
vn -0.000001 0.000000 1.000000
vn 0.000000 -0.000001 1.000000
vn 0.000000 -0.000001 1.000000
vn 0.000000 -0.000001 1.000000
vn 0.000000 -0.000001 1.000000
vn -1.000000 0.000000 0.000000
vn -1.000000 0.000000 0.000000
vn -1.000000 0.000000 0.000000
vn -1.000000 0.000000 0.000000
vn 0.000000 0.000000 -1.000000
vn 0.000000 0.000000 -1.000000
vn 0.000000 0.000000 -1.000000
vn 0.000000 0.000000 -1.000000
vn 1.000000 0.000001 0.000000
vn 1.000000 0.000001 0.000000
vn 1.000000 0.000001 0.000000
vn 1.000000 0.000001 0.000000
vn -0.000001 1.000000 -0.000000
vn -0.000001 1.000000 -0.000000
vn -0.000001 1.000000 -0.000000
vn -0.000001 1.000000 -0.000000
vn -0.000000 1.000000 0.000000
vn -0.000000 1.000000 0.000000
vn -0.000000 1.000000 0.000000
vn -0.000000 1.000000 0.000000
vn 0.000000 1.000000 0.000000
vn 0.000000 1.000000 0.000000
vn 0.000000 1.000000 0.000000
vn 0.000000 1.000000 0.000000
vn 0.000000 -1.000000 0.000000
vn 0.000000 -1.000000 0.000000
vn 0.000000 -1.000000 0.000000
vn 0.000000 -1.000000 0.000000
vn 0.000000 0.000000 -1.000000
vn 0.000000 0.000000 -1.000000
vn 0.000000 0.000000 -1.000000
vn 0.000000 0.000000 -1.000000
vn -1.000000 0.000000 0.000000
vn -1.000000 0.000000 0.000000
vn -1.000000 0.000000 0.000000
vn -1.000000 0.000000 0.000000
vn 1.000000 -0.000001 0.000000
vn 1.000000 -0.000001 0.000000
vn 1.000000 -0.000001 0.000000
vn 1.000000 -0.000001 0.000000
vn 0.000000 0.000001 1.000000
vn 0.000000 0.000001 1.000000
vn 0.000000 0.000001 1.000000
vn 0.000000 0.000001 1.000000
vn 0.000000 -1.000000 0.000003
vn 0.000000 -1.000000 0.000003
vn 0.000000 -1.000000 0.000003
vn 0.000000 -1.000000 0.000003
vn 0.000000 -1.000000 0.000000
vn 0.000000 -1.000000 0.000000
vn 0.000000 -1.000000 0.000000
vn 0.000000 -1.000000 0.000000
vn -1.000000 0.000000 0.000000
vn -1.000000 0.000000 0.000000
vn -1.000000 0.000000 0.000000
vn -1.000000 0.000000 0.000000
vn -1.000000 0.000000 0.000000
vn -1.000000 0.000000 0.000000
vn -1.000000 0.000000 0.000000
vn -1.000000 0.000000 0.000000
vn -0.000001 0.000000 1.000000
vn -0.000001 0.000000 1.000000
vn -0.000001 0.000000 1.000000
vn -0.000001 0.000000 1.000000
vn 1.000000 0.000000 -0.000001
vn 1.000000 0.000000 -0.000001
vn 1.000000 0.000000 -0.000001
vn 1.000000 0.000000 -0.000001
vn 0.000000 0.000000 -1.000000
vn 0.000000 0.000000 -1.000000
vn 0.000000 0.000000 -1.000000
vn 0.000000 0.000000 -1.000000
vn -0.000001 0.000000 -1.000000
vn -0.000001 0.000000 -1.000000
vn -0.000001 0.000000 -1.000000
vn -0.000001 0.000000 -1.000000
vn 0.612373 -0.707107 -0.353553
vn 0.612373 -0.707107 -0.353553
vn 0.612373 -0.707107 -0.353553
vn 0.612373 -0.707107 -0.353553
vn -0.612373 0.707107 0.353553
vn -0.612373 0.707107 0.353553
vn -0.612373 0.707107 0.353553
vn -0.612373 0.707107 0.353553
vn -0.612377 -0.707101 0.353557
vn -0.612377 -0.707101 0.353557
vn -0.612377 -0.707101 0.353557
vn -0.612377 -0.707101 0.353557
vn 0.500000 0.000000 0.866026
vn 0.500000 0.000000 0.866026
vn 0.500000 0.000000 0.866026
vn 0.500000 0.000000 0.866026
vn 0.612377 0.707101 -0.353557
vn 0.612377 0.707101 -0.353557
vn 0.612377 0.707101 -0.353557
vn 0.612377 0.707101 -0.353557
vn -0.499999 0.000001 -0.866026
vn -0.500000 0.000001 -0.866026
vn -0.499999 0.000001 -0.866026
vn -0.500000 0.000001 -0.866026
vn -0.612372 -0.707107 0.353553
vn -0.612372 -0.707107 0.353553
vn -0.612372 -0.707107 0.353553
vn -0.612372 -0.707107 0.353553
vn 0.612372 0.707107 -0.353553
vn 0.612372 0.707107 -0.353553
vn 0.612372 0.707107 -0.353553
vn 0.612372 0.707107 -0.353553
vn -0.612377 0.707101 0.353557
vn -0.612377 0.707101 0.353557
vn -0.612377 0.707101 0.353557
vn -0.612377 0.707101 0.353557
vn 0.500002 0.000000 0.866025
vn 0.500001 0.000000 0.866025
vn 0.500002 0.000000 0.866025
vn 0.500001 0.000000 0.866025
vn 0.612377 -0.707101 -0.353557
vn 0.612377 -0.707100 -0.353557
vn 0.612377 -0.707101 -0.353557
vn 0.612377 -0.707100 -0.353557
vn -0.500001 0.000000 -0.866024
vn -0.500002 0.000000 -0.866025
vn -0.500001 0.000000 -0.866024
vn -0.500002 0.000000 -0.866025
vn -0.612372 0.707107 0.353553
vn -0.612373 0.707107 0.353553
vn -0.612372 0.707107 0.353553
vn -0.612373 0.707107 0.353553
vn 0.612372 -0.707107 -0.353553
vn 0.612372 -0.707107 -0.353553
vn 0.612372 -0.707107 -0.353553
vn 0.612372 -0.707107 -0.353553
vn 0.612377 0.707100 -0.353557
vn 0.612377 0.707100 -0.353557
vn 0.612377 0.707100 -0.353557
vn 0.612377 0.707100 -0.353557
vn 0.499998 0.000000 0.866026
vn 0.499998 0.000000 0.866027
vn 0.499998 0.000000 0.866026
vn 0.499998 0.000000 0.866026
vn -0.612373 -0.707107 0.353553
vn -0.612373 -0.707107 0.353553
vn -0.612373 -0.707107 0.353553
vn -0.612373 -0.707107 0.353553
vn -0.499998 0.000000 -0.866027
vn -0.499998 0.000000 -0.866027
vn -0.499998 0.000000 -0.866027
vn -0.499998 0.000000 -0.866027
vn 0.612373 0.707107 -0.353553
vn 0.612373 0.707107 -0.353553
vn 0.612373 0.707107 -0.353553
vn 0.612373 0.707107 -0.353553
vn -0.612373 -0.707107 0.353553
vn -0.612373 -0.707107 0.353553
vn -0.612373 -0.707107 0.353553
vn -0.612373 -0.707107 0.353553
vn 0.612373 -0.707107 -0.353553
vn 0.612373 -0.707107 -0.353553
vn 0.612373 -0.707107 -0.353553
vn 0.612373 -0.707107 -0.353553
vn 0.500000 0.000000 0.866026
vn 0.500000 0.000000 0.866026
vn 0.500000 0.000000 0.866026
vn 0.500000 0.000000 0.866026
vn -0.612377 0.707100 0.353557
vn -0.612378 0.707100 0.353557
vn -0.612377 0.707100 0.353557
vn -0.612378 0.707100 0.353557
vn -0.499998 0.000000 -0.866026
vn -0.499998 0.000000 -0.866026
vn -0.499998 0.000000 -0.866027
vn -0.499998 0.000000 -0.866026
vn -0.500000 0.000000 -0.866025
vn -0.500000 0.000000 -0.866025
vn -0.500000 0.000000 -0.866025
vn -0.500000 0.000000 -0.866025
vn 0.500000 -0.000000 0.866025
vn 0.500000 -0.000000 0.866025
vn 0.500000 -0.000000 0.866025
vn 0.500000 -0.000000 0.866025
vn -0.612372 -0.707107 0.353554
vn -0.612371 -0.707107 0.353554
vn -0.612372 -0.707107 0.353554
vn -0.612371 -0.707107 0.353554
vn 0.612373 -0.707106 -0.353554
vn 0.612373 -0.707106 -0.353554
vn 0.612373 -0.707106 -0.353554
vn 0.612373 -0.707106 -0.353554
vn 0.612372 0.707106 -0.353555
vn 0.612372 0.707106 -0.353555
vn 0.612372 0.707106 -0.353555
vn 0.612372 0.707106 -0.353555
vn -0.612373 0.707106 0.353554
vn -0.612373 0.707106 0.353554
vn -0.612373 0.707106 0.353554
vn -0.612373 0.707106 0.353554
vn 0.500000 0.000000 0.866025
vn 0.500000 0.000000 0.866025
vn 0.500000 0.000000 0.866025
vn 0.500000 0.000000 0.866025
vn -0.500000 0.000000 -0.866025
vn -0.500000 0.000000 -0.866025
vn -0.500000 0.000000 -0.866025
vn -0.500000 0.000000 -0.866025
vn -0.612373 -0.707106 0.353554
vn -0.612373 -0.707106 0.353554
vn -0.612373 -0.707106 0.353554
vn -0.612373 -0.707106 0.353554
vn -0.612373 0.707106 0.353554
vn -0.612373 0.707106 0.353554
vn -0.612373 0.707106 0.353554
vn -0.612373 0.707106 0.353554
vn 0.612373 0.707106 -0.353554
vn 0.612373 0.707106 -0.353554
vn 0.612373 0.707106 -0.353554
vn 0.612373 0.707106 -0.353554
vn 0.612373 -0.707106 -0.353554
vn 0.612373 -0.707106 -0.353554
vn 0.612373 -0.707106 -0.353554
vn 0.612373 -0.707106 -0.353554
s 1
g polySurface1
usemtl initialShadingGroup
f 1/1/1 2/2/2 39/3/3 5/4/4
f 2/2/2 3/5/5 46/6/6 39/3/3
f 3/5/5 4/7/7 6/8/8 46/6/6
f 5/4/4 39/3/3 40/9/9 7/10/10
f 46/6/6 6/8/8 8/11/11 45/12/12
f 7/10/10 40/9/9 10/13/13 9/14/14
f 40/9/9 45/12/12 11/15/15 10/13/13
f 45/12/12 8/11/11 12/16/16 11/15/15
s 2
f 9/17/17 10/18/18 37/19/19 13/20/20
f 10/18/18 11/21/21 51/22/22 37/19/19
f 11/21/21 12/23/23 14/24/24 51/22/22
f 13/20/20 37/19/19 38/25/25 15/26/26
f 51/22/22 14/24/24 16/27/27 52/28/28
f 15/26/26 38/25/25 18/29/29 17/30/30
f 38/25/25 52/28/28 19/31/31 18/29/29
f 52/28/28 16/27/27 20/32/32 19/31/31
s 3
f 17/33/33 18/34/34 35/35/35 21/36/36
f 18/34/34 19/37/37 49/38/38 35/35/35
f 19/37/37 20/39/39 22/40/40 49/38/38
f 21/36/36 35/35/35 36/41/41 23/42/42
f 49/38/38 22/40/40 24/43/43 50/44/44
f 23/42/42 36/41/41 26/45/45 25/46/46
f 36/41/41 50/44/44 27/47/47 26/45/45
f 50/44/44 24/43/43 28/48/48 27/47/47
s 4
f 25/49/49 26/50/50 33/51/51 29/52/52
f 26/50/50 27/53/53 47/54/54 33/51/51
f 27/53/53 28/55/55 30/56/56 47/54/54
f 29/52/52 33/51/51 34/57/57 31/58/58
f 47/54/54 30/56/56 32/59/59 48/60/60
f 31/58/58 34/57/57 2/61/61 1/62/62
f 34/57/57 48/60/60 3/63/63 2/61/61
f 48/60/60 32/59/59 4/64/64 3/63/63
s 5
f 30/65/65 28/66/66 24/67/67 55/68/68
f 32/69/69 30/65/65 55/68/68 53/70/70
f 4/71/71 32/69/69 53/70/70 6/72/72
f 55/68/68 24/67/67 22/73/73 56/74/74
f 6/72/72 53/70/70 54/75/75 8/76/76
f 56/74/74 22/73/73 20/77/77 16/78/78
f 54/75/75 56/74/74 16/78/78 14/79/79
f 8/76/76 54/75/75 14/79/79 12/80/80
s 6
f 25/81/81 29/82/82 43/83/83 23/84/84
f 29/82/82 31/85/85 41/86/86 43/83/83
f 31/85/85 1/87/87 5/88/88 41/86/86
f 23/84/84 43/83/83 44/89/89 21/90/90
f 41/86/86 5/88/88 7/91/91 42/92/92
f 21/90/90 44/89/89 15/93/93 17/94/94
f 44/89/89 42/92/92 13/95/95 15/93/93
f 42/92/92 7/91/91 9/96/96 13/95/95
s off
f 43/83/97 41/86/98 58/97/99 57/98/100
f 42/92/101 44/89/102 59/99/103 60/100/104
f 41/86/105 42/92/106 60/100/107 58/97/108
f 40/9/109 39/3/110 58/101/111 60/102/112
f 34/57/113 33/51/114 57/103/115 58/104/116
f 33/51/117 47/54/118 61/105/119 57/103/120
f 47/54/121 48/60/122 62/106/123 61/105/124
f 48/60/125 34/57/126 58/104/127 62/106/128
f 50/44/129 36/41/130 57/107/131 61/108/132
f 53/70/133 55/68/134 61/109/135 62/110/136
f 39/3/137 46/6/138 62/111/139 58/101/140
f 45/12/141 40/9/142 60/102/143 63/112/144
f 51/22/145 52/28/146 64/113/147 63/114/148
f 52/28/149 38/25/150 59/115/151 64/113/152
f 37/19/153 51/22/154 63/114/155 60/116/156
f 38/25/157 37/19/158 60/116/159 59/115/160
f 56/74/161 54/75/162 63/117/163 64/118/164
f 64/119/165 59/120/166 35/35/167 49/38/168
f 55/68/169 56/74/170 64/118/171 61/109/172
f 44/89/173 43/83/174 57/98/175 59/99/176
f 59/120/177 57/107/178 36/41/179 35/35/180
f 54/75/181 53/70/182 62/110/183 63/117/184
f 63/112/185 62/111/186 46/6/187 45/12/188
f 49/38/189 50/44/190 61/108/191 64/119/192
f 69/121/193 72/122/194 71/123/195 70/124/196
f 65/125/197 66/126/198 68/127/199 67/128/200
f 65/129/201 69/130/202 70/131/203 66/132/204
f 66/133/205 70/134/206 71/135/207 68/136/208
f 68/137/209 71/138/210 72/139/211 67/140/212
f 67/141/213 72/142/214 69/143/215 65/144/216
f 77/145/217 80/146/218 79/147/219 78/148/220
f 73/149/221 74/150/222 76/151/223 75/152/224
f 73/153/225 77/154/226 78/155/227 74/156/228
f 74/157/229 78/158/230 79/159/231 76/160/232
f 76/161/233 79/162/234 80/163/235 75/164/236
f 75/165/237 80/166/238 77/167/239 73/168/240
f 85/169/241 88/170/242 87/171/243 86/172/244
f 81/173/245 82/174/246 84/175/247 83/176/248
f 81/177/249 85/178/250 86/179/251 82/180/252
f 82/181/253 86/182/254 87/183/255 84/184/256
f 84/185/257 87/186/258 88/187/259 83/188/260
f 83/189/261 88/190/262 85/191/263 81/192/264
f 93/193/265 96/194/266 95/195/267 94/196/268
f 89/197/269 90/198/270 92/199/271 91/200/272
f 89/201/273 93/202/274 94/203/275 90/204/276
f 90/205/277 94/206/278 95/207/279 92/208/280
f 92/209/281 95/210/282 96/211/283 91/212/284
f 91/213/285 96/214/286 93/215/287 89/216/288
f 102/217/289 104/218/290 103/219/291 101/220/292
f 98/221/293 97/222/294 99/223/295 100/224/296
f 98/225/297 102/226/298 101/227/299 97/228/300
f 97/229/301 101/230/302 103/231/303 99/232/304
f 99/233/305 103/234/306 104/235/307 100/236/308
f 100/237/309 104/238/310 102/239/311 98/240/312
f 109/241/313 112/242/314 111/243/315 110/244/316
f 105/245/317 106/246/318 108/247/319 107/248/320
f 105/249/321 109/250/322 110/251/323 106/252/324
f 106/253/325 110/254/326 111/255/327 108/256/328
f 108/257/329 111/258/330 112/259/331 107/260/332
f 107/261/333 112/262/334 109/263/335 105/264/336
