# This file uses centimeters as units for non-parametric coordinates.

mtllib Particle_Texture3.mtl
g default
v 2.270168 3.614181 4.636112
v 4.313534 3.758233 -1.304866
v 1.597368 2.219678 -0.946926
v 3.928198 0.850393 -0.178452
v 9.539984 -2.763049 -0.750334
v 9.368972 1.463044 2.066717
v 7.476661 1.288636 0.380016
v 9.506542 1.911113 -0.430587
v 3.764480 3.134565 -3.090114
v 7.146318 -1.329178 -0.370694
v 5.761871 0.590278 1.651251
v 8.048224 1.552145 0.386809
v 0.188440 -2.346417 4.714839
v 1.371415 0.899502 -2.629762
v -1.127516 3.068166 -0.279892
v -2.522365 0.091858 -1.819925
v -4.847817 -1.762522 -4.107159
v -1.630100 -0.499801 2.671646
v -4.837079 1.471092 2.118508
v -2.042550 2.646748 0.573026
v -4.627393 4.839294 3.689600
v -8.044655 -1.041296 1.297853
v -4.464025 -1.196795 0.910844
v -6.068586 0.605411 -1.227691
v -11.304104 -1.895780 -4.534912
v -7.779156 -0.512493 2.891138
v -11.292339 1.646582 2.285187
v -8.230988 2.934490 0.592140
v -9.103589 1.410211 -4.099312
v -10.925276 -0.642972 2.264095
v -13.557692 0.648612 0.417759
v -11.586388 2.701542 1.644483
v -13.663636 -5.703159 1.820565
v -14.210280 1.908532 -2.167164
v -12.612238 2.165285 1.822197
v -16.426565 1.732799 1.519550
v -18.136406 -1.109496 -4.909220
v -16.318470 -0.908211 3.037924
v -19.485308 1.453705 2.028906
v -16.168507 2.747102 1.237417
v 19.485308 0.618228 0.669307
v -0.154741 2.199650 1.987158
v -0.154741 2.199650 -0.648544
v -0.154741 -0.436052 1.987158
v -0.154741 -0.436052 -0.648544
v 6.696667 3.433979 -2.165825
v 7.528039 -1.286685 0.244148
v 5.486669 0.106047 1.287727
v 7.694675 0.811298 1.907475
v 9.561312 4.466403 3.194485
v 9.377944 1.023703 -1.025204
v 7.348907 0.670549 0.758383
v 9.525454 -0.223007 1.392822
v 6.713443 -3.124766 2.585753
v 5.881959 2.785560 0.987927
v 4.292391 0.796954 -0.762161
v 6.992615 1.031480 -1.299809
v 2.008132 0.674591 -4.766169
v 4.529477 -1.651219 2.188042
v 1.177952 0.293167 2.324232
v 4.054005 2.186903 1.914833
v 0.222250 4.952909 -2.693655
v 1.193393 0.632840 2.285453
v -0.858062 -0.501419 -0.081908
v -2.003140 1.462061 1.845024
v -4.213146 5.703159 2.187557
v -2.114618 -1.462670 0.722143
v -0.269426 1.122143 -1.372874
v -3.452605 0.384270 -2.323131
v -4.647782 -2.758449 -3.668475
v -8.065045 2.158675 0.346955
v -4.484415 2.193479 0.762583
v -6.088976 -0.157961 2.276520
v -10.944278 2.507335 4.444577
v -8.031784 3.219447 -1.755995
v -10.934557 1.367157 -1.802117
v -8.405110 -0.061325 -0.778057
v -9.103589 -1.394686 4.823835
v -10.925276 2.439148 -0.654323
v -13.557692 0.661683 0.730512
v -11.586388 -0.939683 -1.045719
v -14.094256 5.437076 -2.018070
v -14.203707 -0.312111 2.506420
v -12.262153 -0.884884 -0.540928
v -15.517658 -1.048470 -0.827547
v -17.869839 1.515552 4.909220
v -16.551047 3.071489 -0.643887
v -18.848375 1.218581 -0.448190
v -16.442259 0.152941 -0.175352
v 0.658262 0.311942 4.745973
v 5.050252 1.899092 -1.444263
v 1.987898 -0.338703 -2.248112
v 4.689793 -1.894566 -0.730027
v 10.200218 -1.015251 -2.647753
v 10.866814 0.069513 2.867573
v 8.590697 1.314062 1.736040
v 10.828779 2.393788 1.253178
vt 0.133940 0.611683
vt 0.107106 0.666879
vt 0.161996 0.666268
vt 0.011297 0.606652
vt 0.591649 0.378313
vt 0.563150 0.323817
vt 0.618146 0.322816
vt 0.468958 0.386955
vt 0.137741 0.967325
vt 0.108639 0.911311
vt 0.165092 0.910435
vt 0.011783 0.975857
vt 0.873768 0.409517
vt 0.847506 0.464321
vt 0.901854 0.463409
vt 0.752300 0.405220
vt 0.732807 0.214545
vt 0.760948 0.269805
vt 0.705484 0.270213
vt 0.856613 0.207170
vt 0.592071 0.410914
vt 0.565617 0.467065
vt 0.621119 0.465767
vt 0.467983 0.407345
vt 0.873484 0.373905
vt 0.846127 0.321445
vt 0.899038 0.320543
vt 0.755436 0.382083
vt 0.738811 0.563172
vt 0.709648 0.508433
vt 0.765105 0.506999
vt 0.615142 0.572836
vt 0.435005 0.183957
vt 0.406982 0.131769
vt 0.459941 0.130226
vt 0.316926 0.193574
vt 0.867314 0.032317
vt 0.895843 0.086993
vt 0.840690 0.087946
vt 0.990361 0.023763
vt 0.656152 0.981439
vt 0.711466 0.984441
vt 0.869298 0.724500
vt 0.762873 0.982352
vt 0.775865 0.591765
vt 0.282090 0.037379
vt 0.308074 0.088606
vt 0.256699 0.088902
vt 0.396777 0.030732
vt 0.438019 0.600048
vt 0.466291 0.654064
vt 0.411769 0.655076
vt 0.559650 0.591437
vt 0.135846 0.220662
vt 0.163020 0.279262
vt 0.105270 0.277562
vt 0.265001 0.217730
vt 0.136005 0.182697
vt 0.110042 0.126902
vt 0.165063 0.128450
vt 0.012961 0.185652
vt 0.291628 0.761626
vt 0.261905 0.705639
vt 0.318584 0.704256
vt 0.165225 0.771320
vt 0.287648 0.410672
vt 0.315920 0.464337
vt 0.261679 0.465489
vt 0.408635 0.401782
vt 0.591321 0.032677
vt 0.618742 0.087186
vt 0.564166 0.087319
vt 0.713174 0.026022
vt 0.441631 0.563075
vt 0.413976 0.508200
vt 0.468938 0.508026
vt 0.318919 0.569867
vt 0.286188 0.377723
vt 0.257647 0.322921
vt 0.312905 0.322009
vt 0.162901 0.386197
vt 0.731979 0.184602
vt 0.703352 0.130791
vt 0.757852 0.129414
vt 0.610439 0.194027
vt 0.291341 0.797236
vt 0.320270 0.853763
vt 0.263477 0.854295
vt 0.418099 0.789430
vt 0.132991 0.578649
vt 0.104704 0.524184
vt 0.159591 0.523341
vt 0.010525 0.586927
vt 0.440401 0.213747
vt 0.468089 0.268131
vt 0.413507 0.268528
vt 0.562239 0.206500
vt 0.441593 0.377494
vt 0.318471 0.208275
vt 0.727848 0.021103
vt 0.853839 0.187878
vt 0.591719 0.196403
vt 0.469438 0.026614
vt 0.291101 0.573394
vt 0.166392 0.406923
vt 0.441053 0.763615
vt 0.316151 0.595954
vt 0.573069 0.598367
vt 0.726711 0.599258
vt 0.808550 0.975169
vt 0.870172 0.197775
vt 0.744045 0.028018
vt 0.430374 0.025079
vt 0.553444 0.186680
vt 0.870780 0.215171
vt 0.991741 0.378057
vt 0.595963 0.577420
vt 0.715857 0.401551
vt 0.734033 0.380937
vt 0.608907 0.208994
vt 0.588647 0.213324
vt 0.714573 0.382486
vt 0.135773 0.776355
vt 0.256441 0.603923
vt 0.130461 0.413988
vt 0.255653 0.583161
vt 0.292939 0.967615
vt 0.164459 0.791809
vt 0.283453 0.211949
vt 0.409687 0.382126
vt 0.441109 0.398188
vt 0.564384 0.569090
vt 0.287477 0.591591
vt 0.418355 0.765140
vt 0.140648 0.017634
vt 0.258689 0.192564
vt 0.130745 0.393912
vt 0.007086 0.210137
vt 0.734509 0.396803
vt 0.862814 0.566431
vt 0.876503 0.572562
vt 0.995023 0.401148
vt 0.135115 0.797968
vt 0.263902 0.971948
vt 0.282978 0.191504
vt 0.167334 0.032054
vt 0.871882 0.775885
vt 0.672013 0.596969
vt 0.923268 0.773301
vt 0.827306 0.590831
vt 0.552233 0.983283
vt 0.620567 0.597601
vt 0.603679 0.982629
vt 0.920683 0.721916
vn 0.087642 -0.369904 -0.924927
vn 0.087642 -0.369904 -0.924927
vn 0.087642 -0.369904 -0.924927
vn -0.551793 -0.791065 0.264084
vn -0.551793 -0.791065 0.264084
vn -0.551793 -0.791065 0.264084
vn 0.945625 0.000685 0.325259
vn 0.945625 0.000685 0.325259
vn 0.945625 0.000685 0.325259
vn -0.502231 0.851252 -0.152099
vn -0.502231 0.851252 -0.152099
vn -0.502230 0.851252 -0.152099
vn -0.230651 0.959872 0.159515
vn -0.230651 0.959872 0.159515
vn -0.230651 0.959872 0.159515
vn -0.386053 0.060208 -0.920510
vn -0.386053 0.060208 -0.920510
vn -0.386053 0.060208 -0.920510
vn 0.998448 0.003340 0.055601
vn 0.998448 0.003340 0.055601
vn 0.998448 0.003340 0.055601
vn -0.560807 -0.474816 0.678266
vn -0.560807 -0.474816 0.678266
vn -0.560807 -0.474816 0.678266
vn 0.564010 -0.370555 0.737957
vn 0.564010 -0.370555 0.737957
vn 0.564010 -0.370555 0.737957
vn -0.086659 0.862167 0.499158
vn -0.086659 0.862167 0.499158
vn -0.086659 0.862167 0.499158
vn 0.631553 0.006143 -0.775309
vn 0.631553 0.006143 -0.775309
vn 0.631553 0.006143 -0.775309
vn -0.802065 -0.596979 0.017537
vn -0.802065 -0.596979 0.017537
vn -0.802065 -0.596979 0.017537
vn -0.277338 0.540855 -0.794078
vn -0.277338 0.540855 -0.794078
vn -0.277338 0.540855 -0.794078
vn -0.880578 0.187477 0.435241
vn -0.880578 0.187477 0.435241
vn -0.880578 0.187477 0.435241
vn 0.109415 -0.915562 -0.387006
vn 0.109415 -0.915562 -0.387006
vn 0.109415 -0.915562 -0.387006
vn 0.780257 0.515871 0.353661
vn 0.780257 0.515871 0.353661
vn 0.780257 0.515871 0.353661
vn 0.206880 0.561489 0.801206
vn 0.206880 0.561490 0.801206
vn 0.206880 0.561489 0.801206
vn -0.531807 0.751912 -0.389626
vn -0.531807 0.751912 -0.389626
vn -0.531807 0.751912 -0.389626
vn 0.903764 -0.149128 -0.401214
vn 0.903764 -0.149128 -0.401214
vn 0.903764 -0.149128 -0.401214
vn -0.529854 -0.752249 0.391632
vn -0.529854 -0.752249 0.391632
vn -0.529854 -0.752249 0.391632
vn -0.099079 -0.796303 -0.596729
vn -0.099079 -0.796303 -0.596729
vn -0.099079 -0.796303 -0.596729
vn 0.861700 0.231248 -0.451662
vn 0.861700 0.231248 -0.451662
vn 0.861700 0.231248 -0.451662
vn -0.788842 0.560735 -0.251605
vn -0.788842 0.560735 -0.251605
vn -0.788842 0.560735 -0.251605
vn 0.079930 -0.415049 0.906281
vn 0.079930 -0.415049 0.906281
vn 0.079930 -0.415049 0.906281
vn 0.206879 0.561489 0.801206
vn 0.206879 0.561489 0.801206
vn 0.206879 0.561489 0.801206
vn -0.531808 0.751912 -0.389626
vn -0.531808 0.751912 -0.389626
vn -0.531808 0.751912 -0.389626
vn 0.903764 -0.149127 -0.401214
vn 0.903764 -0.149127 -0.401214
vn 0.903764 -0.149127 -0.401214
vn -0.529854 -0.752249 0.391632
vn -0.529854 -0.752249 0.391632
vn -0.529854 -0.752249 0.391632
vn -0.559561 0.042730 0.827687
vn -0.559561 0.042730 0.827687
vn -0.559561 0.042730 0.827687
vn -0.531341 0.747937 -0.397829
vn -0.531341 0.747937 -0.397829
vn -0.531341 0.747937 -0.397829
vn 0.909198 0.242433 0.338503
vn 0.909198 0.242433 0.338503
vn 0.909198 0.242433 0.338503
vn -0.201193 -0.913935 -0.352482
vn -0.201193 -0.913935 -0.352482
vn -0.201193 -0.913935 -0.352482
vn -0.111119 0.993617 -0.019437
vn -0.111119 0.993617 -0.019437
vn -0.111119 0.993617 -0.019437
vn -0.080277 0.010520 0.996717
vn -0.080277 0.010520 0.996717
vn -0.080277 0.010520 0.996717
vn -0.805347 -0.319452 -0.499365
vn -0.805347 -0.319452 -0.499365
vn -0.805347 -0.319452 -0.499365
vn 0.923915 -0.123380 -0.362158
vn 0.923915 -0.123381 -0.362158
vn 0.923915 -0.123380 -0.362158
vn 0.042432 0.440075 0.896958
vn 0.042432 0.440075 0.896958
vn 0.042432 0.440075 0.896958
vn -0.413612 0.824959 -0.385184
vn -0.413612 0.824959 -0.385184
vn -0.413612 0.824959 -0.385184
vn 0.965101 -0.146512 -0.217059
vn 0.965101 -0.146512 -0.217059
vn 0.965101 -0.146512 -0.217059
vn -0.622589 -0.765637 0.161811
vn -0.622589 -0.765637 0.161811
vn -0.622589 -0.765637 0.161811
vn 0.080260 0.996774 0.000000
vn 0.080260 0.996774 0.000000
vn 0.080260 0.996774 0.000000
vn -1.000000 0.000000 0.000000
vn -1.000000 0.000000 0.000000
vn -1.000000 0.000000 0.000000
vn -1.000000 0.000000 0.000000
vn 0.053603 -0.998562 0.000000
vn 0.053603 -0.998562 0.000000
vn 0.053603 -0.998562 0.000000
vn 0.066950 0.000000 -0.997756
vn 0.066950 0.000000 -0.997756
vn 0.066950 0.000000 -0.997756
vn 0.066950 0.000000 0.997756
vn 0.066950 0.000000 0.997756
vn 0.066950 0.000000 0.997756
vn -0.022088 -0.620030 0.784267
vn -0.022088 -0.620030 0.784267
vn -0.022088 -0.620030 0.784267
vn -0.390679 0.727437 0.564097
vn -0.390679 0.727437 0.564097
vn -0.390679 0.727437 0.564097
vn 0.978597 0.074391 -0.191870
vn 0.978597 0.074391 -0.191870
vn 0.978597 0.074391 -0.191870
vn -0.627944 -0.438747 -0.642797
vn -0.627944 -0.438747 -0.642797
vn -0.627944 -0.438747 -0.642797
vn -0.230651 -0.870510 -0.434756
vn -0.230651 -0.870510 -0.434756
vn -0.230651 -0.870510 -0.434756
vn -0.386055 -0.328263 0.862093
vn -0.386055 -0.328263 0.862093
vn -0.386055 -0.328263 0.862093
vn 0.998447 0.013160 -0.054124
vn 0.998447 0.013160 -0.054124
vn 0.998448 0.013160 -0.054124
vn -0.560807 0.653293 -0.508630
vn -0.560807 0.653293 -0.508630
vn -0.560807 0.653293 -0.508630
vn -0.193786 0.730852 -0.654448
vn -0.193786 0.730852 -0.654448
vn -0.193786 0.730852 -0.654448
vn -0.086659 -0.677238 -0.730643
vn -0.086659 -0.677238 -0.730643
vn -0.086659 -0.677238 -0.730643
vn 0.933086 0.210171 0.291853
vn 0.933086 0.210171 0.291853
vn 0.933086 0.210171 0.291853
vn -0.772869 0.062001 0.631529
vn -0.772869 0.062001 0.631529
vn -0.772869 0.062001 0.631529
vn 0.087642 0.081528 0.992810
vn 0.087642 0.081528 0.992810
vn 0.087642 0.081528 0.992810
vn -0.551793 0.833747 -0.019756
vn -0.551793 0.833747 -0.019756
vn -0.551793 0.833747 -0.019756
vn 0.945625 0.095002 -0.311076
vn 0.945625 0.095002 -0.311076
vn 0.945625 0.095002 -0.311076
vn -0.502230 -0.858338 -0.104977
vn -0.502230 -0.858338 -0.104977
vn -0.502230 -0.858338 -0.104977
vn -0.277338 -0.750471 0.599897
vn -0.277338 -0.750471 0.599897
vn -0.277338 -0.750471 0.599897
vn -0.880578 -0.051183 -0.471129
vn -0.880578 -0.051183 -0.471129
vn -0.880578 -0.051183 -0.471129
vn 0.109416 0.761255 0.639154
vn 0.109416 0.761255 0.639154
vn 0.109416 0.761255 0.639154
vn 0.780257 -0.389047 -0.489737
vn 0.780257 -0.389047 -0.489737
vn 0.780257 -0.389047 -0.489737
vn 0.345602 -0.727303 -0.592950
vn 0.345602 -0.727303 -0.592950
vn 0.345602 -0.727303 -0.592950
vn 0.074524 0.651163 -0.755270
vn 0.074524 0.651163 -0.755270
vn 0.074524 0.651163 -0.755270
vn -0.924441 -0.314748 0.215274
vn -0.924441 -0.314748 0.215274
vn -0.924441 -0.314748 0.215274
vn 0.708558 0.063787 0.702764
vn 0.708558 0.063787 0.702764
vn 0.708558 0.063787 0.702764
vn -0.099079 0.585592 0.804528
vn -0.099079 0.585592 0.804528
vn -0.099079 0.585592 0.804528
vn 0.861699 -0.353853 0.363679
vn 0.861699 -0.353853 0.363679
vn 0.861699 -0.353853 0.363679
vn -0.788842 -0.609933 0.075568
vn -0.788842 -0.609933 0.075568
vn -0.788842 -0.609933 0.075568
vn 0.079931 0.663228 -0.744137
vn 0.079931 0.663228 -0.744137
vn 0.079931 0.663228 -0.744137
vn 0.206880 -0.301027 -0.930905
vn 0.206880 -0.301027 -0.930905
vn 0.206880 -0.301027 -0.930905
vn -0.531807 -0.833247 0.151261
vn -0.531807 -0.833247 0.151261
vn -0.531807 -0.833247 0.151261
vn 0.903763 0.024537 0.427328
vn 0.903764 0.024537 0.427328
vn 0.903764 0.024537 0.427328
vn -0.529854 0.834159 -0.153080
vn -0.529854 0.834159 -0.153080
vn -0.529854 0.834159 -0.153080
vn -0.559561 0.202578 -0.803650
vn -0.559561 0.202578 -0.803650
vn -0.559561 0.202578 -0.803650
vn -0.531341 -0.831860 0.160270
vn -0.531341 -0.831860 0.160270
vn -0.531341 -0.831860 0.160270
vn 0.909198 -0.132160 -0.394832
vn 0.909198 -0.132160 -0.394832
vn 0.909198 -0.132160 -0.394832
vn -0.201193 0.769854 0.605678
vn -0.201193 0.769854 0.605678
vn -0.201193 0.769854 0.605678
vn 0.031225 -0.978512 0.203813
vn 0.031225 -0.978512 0.203813
vn 0.031225 -0.978512 0.203813
vn 0.095899 -0.200039 -0.975083
vn 0.095899 -0.200039 -0.975083
vn 0.095899 -0.200039 -0.975083
vn -0.917089 0.257196 0.304629
vn -0.917089 0.257196 0.304629
vn -0.917089 0.257196 0.304629
vn 0.819753 0.344470 0.457542
vn 0.819753 0.344470 0.457542
vn 0.819753 0.344470 0.457542
vn 0.042433 -0.156822 -0.986715
vn 0.042433 -0.156822 -0.986715
vn 0.042433 -0.156822 -0.986715
vn -0.413612 -0.901757 0.125533
vn -0.413612 -0.901757 0.125533
vn -0.413612 -0.901757 0.125533
vn 0.965101 0.076196 0.250549
vn 0.965101 0.076196 0.250549
vn 0.965101 0.076196 0.250549
vn -0.622590 0.779365 0.070515
vn -0.622590 0.779365 0.070515
vn -0.622590 0.779365 0.070515
vn 0.386499 -0.205978 -0.898995
vn 0.386499 -0.205978 -0.898995
vn 0.386499 -0.205978 -0.898995
vn -0.493516 -0.869641 -0.012921
vn -0.493516 -0.869641 -0.012921
vn -0.493516 -0.869641 -0.012921
vn 0.811138 0.032866 0.583931
vn 0.811138 0.032866 0.583931
vn 0.811138 0.032866 0.583931
vn -0.549043 0.816115 -0.180299
vn -0.549043 0.816115 -0.180299
vn -0.549043 0.816115 -0.180299
vn -0.096879 0.566718 0.818196
vn -0.096879 0.566718 0.818197
vn -0.096879 0.566718 0.818197
vn -0.457089 0.704911 -0.542374
vn -0.457089 0.704911 -0.542374
vn -0.457089 0.704911 -0.542374
vn 0.992362 -0.059008 -0.108334
vn 0.992362 -0.059008 -0.108334
vn 0.992362 -0.059008 -0.108334
vn -0.551100 -0.803626 0.224666
vn -0.551100 -0.803626 0.224666
vn -0.551100 -0.803626 0.224666
s off
g Sharp_Part
usemtl group69_pasted__group64_pasted__pasted__group63_pasted__pasted__pasted__group62_pasted__pasted__pasted__pasted__group61_pasted__pasted__pasted__pasted__pasted__group60_pasted__pasted__pasted__pasted__pasted__pasted__group59_pasted__pasted__pasted__pasted__pasted__pasted__pasted__group57_pasted__pasted__pasted__pasted__pasted__pasted__pasted__pasted__group21_pasted__pasted__pasted__pasted__pasted__pasted__pasted__pasted__pasted__group4_pasted__pasted__pasted__pasted__pasted__pasted__pasted__pasted__pasted__pasted__group2_pasted__pasted__pasted__pasted__pasted__pasted__pasted__pasted__pasted__pasted__pasted__group1_pasted__pasted__pasted__pasted__pasted__pasted__pasted__pasted__pasted__pasted__pasted__pasted__group_pasted__pasted__pasted__pasted__pasted__pasted__pasted__pasted__pasted__pasted__pasted__pasted__pasted__pCube1SG
f 2/1/1 4/2/2 3/3/3
f 3/3/4 4/2/5 1/123/6
f 1/4/7 4/2/8 2/1/9
f 3/3/10 1/124/11 2/1/12
f 6/5/13 8/6/14 7/7/15
f 7/7/16 8/6/17 5/121/18
f 5/8/19 8/6/20 6/5/21
f 7/7/22 5/122/23 6/5/24
f 10/9/25 12/10/26 11/11/27
f 11/11/28 12/10/29 9/143/30
f 9/12/31 12/10/32 10/9/33
f 11/11/34 9/144/35 10/9/36
f 14/13/37 16/14/38 15/15/39
f 15/15/40 16/14/41 13/141/42
f 13/16/43 16/14/44 14/13/45
f 15/15/46 13/142/47 14/13/48
f 18/17/49 20/18/50 19/19/51
f 19/19/52 20/18/53 17/119/54
f 17/20/55 20/18/56 18/17/57
f 19/19/58 17/120/59 18/17/60
f 22/21/61 24/22/62 23/23/63
f 23/23/64 24/22/65 21/117/66
f 21/24/67 24/22/68 22/21/69
f 23/23/70 21/118/71 22/21/72
f 26/25/73 28/26/74 27/27/75
f 27/27/76 28/26/77 25/115/78
f 25/28/79 28/26/80 26/25/81
f 27/27/82 25/116/83 26/25/84
f 30/29/85 32/30/86 31/31/87
f 31/31/88 32/30/89 29/139/90
f 29/32/91 32/30/92 30/29/93
f 31/31/94 29/140/95 30/29/96
f 34/33/97 36/34/98 35/35/99
f 35/35/100 36/34/101 33/113/102
f 33/36/103 36/34/104 34/33/105
f 35/35/106 33/114/107 34/33/108
f 38/37/109 40/38/110 39/39/111
f 39/39/112 40/38/113 37/111/114
f 37/40/115 40/38/116 38/37/117
f 39/39/118 37/112/119 38/37/120
f 41/108/121 43/153/122 42/151/123
f 42/43/124 43/154/125 45/149/126 44/147/127
f 44/45/128 45/150/129 41/110/130
f 41/109/131 45/44/132 43/42/133
f 44/148/134 41/41/135 42/152/136
f 47/46/137 49/47/138 48/48/139
f 48/48/140 49/47/141 46/145/142
f 46/49/143 49/47/144 47/46/145
f 48/48/146 46/146/147 47/46/148
f 51/50/149 53/51/150 52/52/151
f 52/52/152 53/51/153 50/106/154
f 50/53/155 53/51/156 51/50/157
f 52/52/158 50/107/159 51/50/160
f 55/54/161 57/55/162 56/56/163
f 56/56/164 57/55/165 54/137/166
f 54/57/167 57/55/168 55/54/169
f 56/56/170 54/138/171 55/54/172
f 59/58/173 61/59/174 60/60/175
f 60/60/176 61/59/177 58/135/178
f 58/61/179 61/59/180 59/58/181
f 60/60/182 58/136/183 59/58/184
f 63/62/185 65/63/186 64/64/187
f 64/64/188 65/63/189 62/133/190
f 62/65/191 65/63/192 63/62/193
f 64/64/194 62/134/195 63/62/196
f 67/66/197 69/67/198 68/68/199
f 68/68/200 69/67/201 66/104/202
f 66/69/203 69/67/204 67/66/205
f 68/68/206 66/105/207 67/66/208
f 71/70/209 73/71/210 72/72/211
f 72/72/212 73/71/213 70/102/214
f 70/73/215 73/71/216 71/70/217
f 72/72/218 70/103/219 71/70/220
f 75/74/221 77/75/222 76/76/223
f 76/76/224 77/75/225 74/131/226
f 74/77/227 77/75/228 75/74/229
f 76/76/230 74/132/231 75/74/232
f 79/78/233 81/79/234 80/80/235
f 80/80/236 81/79/237 78/129/238
f 78/81/239 81/79/240 79/78/241
f 80/80/242 78/130/243 79/78/244
f 83/82/245 85/83/246 84/84/247
f 84/84/248 85/83/249 82/100/250
f 82/85/251 85/83/252 83/82/253
f 84/84/254 82/101/255 83/82/256
f 87/86/257 89/87/258 88/88/259
f 88/88/260 89/87/261 86/127/262
f 86/89/263 89/87/264 87/86/265
f 88/88/266 86/128/267 87/86/268
f 91/90/269 93/91/270 92/92/271
f 92/92/272 93/91/273 90/125/274
f 90/93/275 93/91/276 91/90/277
f 92/92/278 90/126/279 91/90/280
f 95/94/281 97/95/282 96/96/283
f 96/96/284 97/95/285 94/98/286
f 94/97/287 97/95/288 95/94/289
f 96/96/290 94/99/291 95/94/292
