# This file uses centimeters as units for non-parametric coordinates.

mtllib Triangle.mtl
g default
v -94.951889 -149.999985 157.500244
v 164.855927 -149.999985 7.500278
v -94.952026 -149.999985 -142.500244
v -94.951889 149.999985 157.500244
v 164.855942 149.999985 7.500275
v -94.952026 149.999985 -142.500244
v -94.951782 -130.888535 -123.388588
v -94.951859 -130.888535 138.388611
v -94.951859 130.888535 138.388611
v -94.951782 130.888535 -123.388588
v 149.810425 -132.626999 -1.186249
v -79.906372 -132.626999 -133.813461
v -79.906372 132.627014 -133.813461
v 149.810425 132.627014 -1.186249
v -78.151123 -130.600204 147.800323
v 148.055267 -130.600204 17.200180
v 148.055267 130.600220 17.200180
v -78.151123 130.600220 147.800323
v -80.188904 149.999985 122.911278
v 122.375046 149.999985 5.960938
v -80.189026 149.999985 -110.989555
v -88.125717 -149.999985 -125.005066
v -88.125565 -149.999985 144.005142
v 144.843994 -149.999985 9.500122
v -80.188965 149.999985 7.620529
v -94.951958 149.999985 7.500004
v -94.951759 130.888535 7.500015
v -94.951759 -130.888535 7.500015
v -94.951958 -149.999985 7.500004
v -88.125641 -149.999985 7.560585
vt 0.140481 0.388133
vt 0.140481 0.053248
vt 0.475366 0.053248
vt 0.475366 0.388133
vt 0.115608 0.413006
vt 0.115608 0.028375
vt 0.500239 0.028375
vt 0.500239 0.413006
vt 0.383139 0.861145
vt 0.038242 0.861623
vt 0.210276 0.562694
vt 0.400454 0.869873
vt 0.015824 0.870407
vt 0.207677 0.537040
vt 0.389043 0.742556
vt 0.241265 0.481612
vt 0.541139 0.484104
vt 0.382864 0.790375
vt 0.193325 0.455689
vt 0.577942 0.458886
vt 0.585910 0.048868
vt 0.927886 0.048868
vt 0.927886 0.390844
vt 0.585910 0.390844
vt 0.563512 0.026470
vt 0.950284 0.026470
vt 0.950284 0.413242
vt 0.563512 0.413242
vt 0.984262 0.852015
vt 0.596123 0.852015
vt 0.620849 0.827289
vt 0.959536 0.827289
vt 0.596123 0.463877
vt 0.620849 0.488603
vt 0.959536 0.488603
vt 0.984262 0.463877
vt 0.464012 0.615164
vt 0.480403 0.624631
vt 0.790193 0.463877
vt 0.790193 0.488603
vt 0.790193 0.827289
vt 0.790193 0.852015
vt 0.208139 0.870140
vt 0.208204 0.861387
vn 0.499999 0.000000 0.866026
vn 0.499999 0.000000 0.866026
vn 0.499999 0.000000 0.866026
vn 0.499999 0.000000 0.866026
vn 0.500000 0.000000 -0.866025
vn 0.500000 0.000000 -0.866025
vn 0.500000 0.000000 -0.866025
vn 0.500000 0.000000 -0.866025
vn -1.000000 0.000000 -0.000000
vn -1.000000 0.000000 -0.000000
vn -1.000000 0.000000 -0.000001
vn -1.000000 0.000000 -0.000001
vn 0.000000 -1.000000 0.000000
vn 0.000000 -1.000000 0.000000
vn 0.000000 -1.000000 0.000000
vn 0.000000 -1.000000 0.000000
vn 0.000000 1.000000 -0.000000
vn 0.000000 1.000000 -0.000000
vn 0.000000 1.000000 -0.000000
vn 0.000000 1.000000 -0.000000
vn -1.000000 0.000009 0.000000
vn -1.000000 0.000009 0.000000
vn -1.000000 0.000006 -0.000000
vn -1.000000 0.000006 -0.000000
vn -1.000000 0.000000 -0.000002
vn -1.000000 0.000000 -0.000002
vn -1.000000 0.000000 -0.000002
vn -1.000000 0.000000 -0.000002
vn -1.000000 -0.000006 -0.000000
vn -1.000000 -0.000009 0.000000
vn -1.000000 -0.000009 0.000000
vn -1.000000 -0.000006 -0.000000
vn -1.000000 0.000000 0.000013
vn -1.000000 0.000000 0.000013
vn -1.000000 0.000000 0.000013
vn -1.000000 0.000000 0.000013
vn 0.500001 0.000004 -0.866025
vn 0.500001 0.000004 -0.866025
vn 0.500001 0.000004 -0.866025
vn 0.500001 0.000004 -0.866025
vn 0.500007 0.000000 -0.866021
vn 0.500007 0.000000 -0.866021
vn 0.500007 0.000000 -0.866021
vn 0.500007 0.000000 -0.866021
vn 0.500000 -0.000005 -0.866025
vn 0.500000 -0.000005 -0.866025
vn 0.500000 -0.000005 -0.866025
vn 0.500000 -0.000005 -0.866025
vn 0.500000 -0.000000 -0.866025
vn 0.500000 -0.000000 -0.866026
vn 0.500000 -0.000000 -0.866026
vn 0.500000 -0.000000 -0.866026
vn 0.500000 -0.000001 0.866026
vn 0.500000 -0.000001 0.866026
vn 0.500000 -0.000001 0.866026
vn 0.500000 -0.000001 0.866026
vn 0.500001 0.000000 0.866025
vn 0.500001 0.000000 0.866025
vn 0.500001 0.000000 0.866025
vn 0.500001 0.000000 0.866025
vn 0.499999 0.000001 0.866026
vn 0.499999 0.000001 0.866026
vn 0.499999 0.000001 0.866026
vn 0.499999 0.000001 0.866026
vn 0.500000 0.000000 0.866026
vn 0.500000 0.000000 0.866026
vn 0.500000 0.000000 0.866026
vn 0.500000 0.000000 0.866026
vn 0.000000 1.000000 -0.000000
vn 0.000000 1.000000 -0.000000
vn 0.000000 1.000000 -0.000000
vn 0.000000 1.000000 -0.000000
vn 0.000000 1.000000 0.000001
vn 0.000000 1.000000 0.000001
vn 0.000000 1.000000 0.000001
vn 0.000000 1.000000 0.000001
vn 0.000000 1.000000 0.000000
vn 0.000000 1.000000 0.000000
vn 0.000000 1.000000 0.000000
vn 0.000000 1.000000 0.000000
vn 0.000000 -1.000000 0.000000
vn 0.000000 -1.000000 -0.000000
vn 0.000000 -1.000000 -0.000000
vn 0.000000 -1.000000 0.000000
vn 0.000000 -1.000000 -0.000000
vn 0.000000 -1.000000 -0.000000
vn 0.000000 -1.000000 -0.000000
vn 0.000000 -1.000000 -0.000000
vn 0.000000 -1.000000 0.000000
vn 0.000000 -1.000000 0.000000
vn 0.000000 -1.000000 0.000000
vn 0.000000 -1.000000 0.000000
vn 0.000000 1.000000 0.000000
vn 0.000000 1.000000 0.000000
vn -1.000000 -0.000011 0.000000
vn -1.000000 -0.000011 0.000000
vn -1.000000 0.000000 0.000000
vn -1.000000 0.000000 0.000000
vn -1.000000 0.000011 0.000000
vn -1.000000 0.000011 0.000000
vn 0.000000 -1.000000 -0.000000
vn 0.000000 -1.000000 -0.000000
s off
g TRIANBGLE
usemtl lambert7SG
f 15/1/1 16/2/2 17/3/3 18/4/4
f 11/21/5 12/22/6 13/23/7 14/24/8
s 1
f 27/40/9 28/41/10 8/31/11 9/34/12
s off
f 23/9/13 30/44/14 22/10/15 24/11/16
f 19/15/17 20/16/18 21/17/19 25/37/20
s 2
f 28/41/21 29/42/22 1/30/23 8/31/24
s off
f 1/30/25 4/33/26 9/34/27 8/31/28
s 3
f 4/33/29 26/39/30 27/40/31 9/34/32
s off
f 6/36/33 3/29/34 7/32/35 10/35/36
f 2/25/37 3/26/38 12/22/39 11/21/40
f 3/26/41 6/27/42 13/23/43 12/22/44
f 6/27/45 5/28/46 14/24/47 13/23/48
f 5/28/49 2/25/50 11/21/51 14/24/52
f 1/5/53 2/6/54 16/2/55 15/1/56
f 2/6/57 5/7/58 17/3/59 16/2/60
f 5/7/61 4/8/62 18/4/63 17/3/64
f 4/8/65 1/5/66 15/1/67 18/4/68
f 4/18/69 5/19/70 20/16/71 19/15/72
f 5/19/73 6/20/74 21/17/75 20/16/76
s 4
f 25/37/77 26/38/78 4/18/79 19/15/80
s 5
f 1/12/81 29/43/82 30/44/83 23/9/84
s off
f 3/13/85 2/14/86 24/11/87 22/10/88
f 2/14/89 1/12/90 23/9/91 24/11/92
s 4
f 6/20/93 26/38/78 25/37/77 21/17/94
s 3
f 27/40/31 26/39/30 6/36/95 10/35/96
s 1
f 7/32/97 28/41/10 27/40/9 10/35/98
s 2
f 3/29/99 29/42/22 28/41/21 7/32/100
s 5
f 30/44/83 29/43/82 3/13/101 22/10/102
